<svg xmlns="http://www.w3.org/2000/svg" width="1200" height="520" viewBox="0 0 1200 520" role="img" aria-labelledby="title description">
  <title id="title">skaft-software/ygg</title>
  <description id="description">A clean white project card for Ygg, a coding agent harness for local and cloud models alike.</description>

  <rect width="1200" height="520" rx="24" fill="#ffffff"/>
  <rect x="1" y="1" width="1198" height="518" rx="23" fill="none" stroke="#e8ebef" stroke-width="2"/>

  <g font-family="-apple-system, BlinkMacSystemFont, Segoe UI, Helvetica, Arial, sans-serif">
    <text x="80" y="145" fill="#2f353d" font-size="74" font-weight="400" letter-spacing="-2">
      <tspan>skaft-software/</tspan><tspan font-weight="700">ygg</tspan>
    </text>

    <text x="80" y="230" fill="#6f7885" font-size="31" font-weight="400">a coding agent harness for local and cloud models</text>
    <text x="80" y="276" fill="#6f7885" font-size="31" font-weight="400">alike.</text>

    <g transform="translate(920 70)">
      <rect width="200" height="200" rx="28" fill="#fafafa"/>
      <rect x="1" y="1" width="198" height="198" rx="27" fill="none" stroke="#f1f2f4" stroke-width="2"/>
      <text x="100" y="119" fill="#12161a" font-size="44" font-weight="700" letter-spacing="5" text-anchor="middle">skaft</text>
    </g>

    <g transform="translate(80 405)" fill="#727c89">
      <g>
        <path d="M4 21c0-7 5-12 12-12s12 5 12 12M16 5a6 6 0 1 1 0 12 6 6 0 0 1 0-12" fill="none" stroke="#8592a8" stroke-width="3" stroke-linecap="round"/>
        <text x="45" y="17" font-size="22" font-weight="600" fill="#343b44">Rust</text>
        <text x="45" y="46" font-size="16">single native binary</text>
      </g>

      <g transform="translate(285 0)">
        <circle cx="16" cy="16" r="14" fill="none" stroke="#8592a8" stroke-width="3"/>
        <circle cx="16" cy="16" r="4" fill="#8592a8"/>
        <text x="48" y="17" font-size="22" font-weight="600" fill="#343b44">Local first</text>
        <text x="48" y="46" font-size="16">your models, your sessions</text>
      </g>

      <g transform="translate(640 0)">
        <path d="M3 19h10l5-13 5 26 5-13h11" fill="none" stroke="#8592a8" stroke-width="3" stroke-linecap="round" stroke-linejoin="round"/>
        <text x="54" y="17" font-size="22" font-weight="600" fill="#343b44">Tool calling</text>
        <text x="54" y="46" font-size="16">local and cloud models</text>
      </g>
    </g>
  </g>

  <path d="M0 506h1200v14H0z" fill="#e8aa86"/>
</svg>
